<?xml version="1.0"?>
<svg xmlns="http://www.w3.org/2000/svg" height="512px" viewBox="0 0 192 192" width="512px"><g><g id="_15-warning_sign" data-name="15-warning sign"><path d="m186.015 130.209-64.507-104.2a30 30 0 0 0 -51.016 0l-64.507 104.2a30 30 0 0 0 25.508 45.791h129.014a30 30 0 0 0 25.508-45.791zm-13.278 22.6a13.83 13.83 0 0 1 -12.23 7.191h-129.014a14 14 0 0 1 -11.9-21.369l64.507-104.203a14 14 0 0 1 23.808 0l64.507 104.2a13.83 13.83 0 0 1 .322 14.185z" data-original="#000000" class="active-path" data-old_color="#000000" fill="#FFFFFF"/><path d="m88 64h16v48h-16z" data-original="#000000" class="active-path" data-old_color="#000000" fill="#FFFFFF"/><path d="m88 120h16v16h-16z" data-original="#000000" class="active-path" data-old_color="#000000" fill="#FFFFFF"/></g></g> </svg>
